:SAMPLES-PER-SECOND 24
:FULLY-SPECIFIED
:DEGREES
412
root  2.32455 38.9641 31.8463 177.258 -49.6561 175.515
RightUpLeg  -6.74458 -12.5611 -16.397
RightLeg  30.8457 6.69682 4.08951
RightFoot  -4.5283 -0.58105 9.31746
RightToes  -1.74623e-010 0 -2.59999e-017
Spine  5.94959 -1.73587 -8.03839
Spine1  9.6616 -3.49863 3.17692
HEad  -14.1028 -27.5243 9.63387
LeftShoulder1  1.35586 -2.54455 -15.6186
LeftArm  13.862 17.1679 -42.1832
LeftForeArm  124.049 -77.7009 -125.022
LeftHand  -0.0536684 6.54631 -1.37275
RightShoulder  2.70148 4.88756 26.1781
RightArm  -11.4936 -32.6155 27.7937
RightForeArm  17.9472 69.7248 30.9505
RightHand  -0.146493 -6.62846 8.80003
LeftUpLeg  4.09741 9.03218 8.28728
LeftLeg  27.9763 -1.75615 -0.642301
LeftFoot  -9.82785 0.21795 -12.3008
LeftToes  -6.27559e-011 -2.10356e-011 8.24929e-012
413
root  2.60014 37.3969 31.9173 177.115 -49.2323 175.646
RightUpLeg  -10.9124 -13.4322 -16.0477
RightLeg  39.2445 5.69245 4.70437
RightFoot  -14.1906 0.0661013 6.52552
RightToes  -1.74623e-010 0 -2.59999e-017
Spine  6.73279 -1.46149 -8.77183
Spine1  10.8999 -3.66157 3.75677
HEad  -16.7652 -26.2617 10.34
LeftShoulder1  1.40027 -2.28765 -17.5374
LeftArm  14.0996 8.10289 -37.579
LeftForeArm  108.782 -79.0372 -111.534
LeftHand  -0.0268855 8.95149 0.680218
RightShoulder  2.89813 5.066 27.8601
RightArm  -13.3468 -24.7547 24.5997
RightForeArm  23.0887 66.1554 24.034
RightHand  -0.0846065 -8.11492 1.61328
LeftUpLeg  1.03266 9.37962 8.97643
LeftLeg  35.9902 -2.2883 -1.39931
LeftFoot  -20.5697 -0.911711 -12.7762
LeftToes  -6.27559e-011 -2.10356e-011 8.24929e-012
414
root  2.83472 36.5111 31.9951 176.894 -48.5869 175.806
RightUpLeg  -14.1966 -13.4302 -15.6985
RightLeg  44.9856 5.04423 5.08835
RightFoot  -17.1526 0.145812 5.10219
RightToes  -1.74623e-010 0 -2.59999e-017
Spine  6.65209 -1.17219 -9.47709
Spine1  13.6499 -3.82246 4.32515
HEad  -20.2604 -25.309 12.1187
LeftShoulder1  1.55486 -2.23525 -20.6631
LeftArm  11.9149 0.812505 -35.6347
LeftForeArm  103.89 -80.2068 -96.366
LeftHand  0.0203508 12.4068 1.42138
RightShoulder  3.21922 5.37339 30.3711
RightArm  -18.9527 -16.6122 23.9243
RightForeArm  40.7737 63.3159 18.4479
RightHand  -0.0563837 -12.2512 -0.213372
LeftUpLeg  -1.17108 10.0851 9.5702
LeftLeg  41.0354 -2.59725 -2.00047
LeftFoot  -24.4257 -1.30827 -12.6344
LeftToes  -6.27559e-011 -2.10356e-011 8.24929e-012
415
root  2.75733 36.9326 31.9063 176.396 -48.4976 176.356
RightUpLeg  -12.6531 -13.8207 -15.4858
RightLeg  42.4157 5.9536 5.50832
RightFoot  -15.1234 0.0982891 5.97735
RightToes  -1.74623e-010 0 -2.59999e-017
Spine  5.70994 -1.4795 -9.23478
Spine1  15.1993 -4.15821 4.36379
HEad  -20.6945 -25.1924 13.3178
LeftShoulder1  1.67908 -2.43351 -21.9424
LeftArm  8.4309 2.59068 -40.1785
LeftForeArm  117.757 -80.7685 -97.4545
LeftHand  0.205363 14.0019 3.63413
RightShoulder  3.24456 5.39103 30.5812
RightArm  -24.9556 -14.9436 29.7125
RightForeArm  48.9254 63.2588 17.4427
RightHand  0.117594 -15.9833 -2.12646
LeftUpLeg  0.0911991 10.0777 9.92377
LeftLeg  38.6305 -2.20851 -1.49558
LeftFoot  -22.5768 -1.15191 -13.0553
LeftToes  -6.27559e-011 -2.10356e-011 8.24929e-012
416
root  2.4298 38.4475 31.6315 175.962 -49.1763 177.049
RightUpLeg  -7.67839 -14.4462 -15.124
RightLeg  33.5453 7.06215 4.78118
RightFoot  -8.43259 -0.249756 7.76499
RightToes  -1.74623e-010 0 -2.59999e-017
Spine  4.32886 -2.08382 -9.2479
Spine1  14.6862 -4.72295 5.18362
HEad  -16.8712 -25.8296 13.0377
LeftShoulder1  1.63204 -2.30725 -21.7289
LeftArm  7.23339 10.0642 -46.7576
LeftForeArm  130.658 -79.7634 -114.391
LeftHand  0.589498 13.6476 9.05626
RightShoulder  3.18153 5.31364 30.182
RightArm  -24.6067 -19.3119 34.9442
RightForeArm  44.5167 66.7302 21.6914
RightHand  0.3018 -15.8488 -4.307
LeftUpLeg  3.75897 8.97102 9.93167
LeftLeg  30.3656 -1.91185 -0.835955
LeftFoot  -14.2007 -0.250314 -13.6689
LeftToes  -6.27559e-011 -2.10356e-011 8.24929e-012
